<mxfile host="app.diagrams.net" agent="Mozilla/5.0 (Windows NT 10.0; Win64; x64; rv:129.0) Gecko/20100101 Firefox/129.0" version="24.7.10">
  <diagram id="C5RBs43oDa-KdzZeNtuy" name="Page-1">
    <mxGraphModel dx="1637" dy="866" grid="1" gridSize="10" guides="1" tooltips="1" connect="1" arrows="1" fold="1" page="1" pageScale="1" pageWidth="827" pageHeight="1169" math="0" shadow="0">
      <root>
        <mxCell id="WIyWlLk6GJQsqaUBKTNV-0" />
        <mxCell id="WIyWlLk6GJQsqaUBKTNV-1" parent="WIyWlLk6GJQsqaUBKTNV-0" />
        <mxCell id="SAEvLFweczplVzYCOx6r-12" style="edgeStyle=orthogonalEdgeStyle;rounded=0;orthogonalLoop=1;jettySize=auto;html=1;exitX=0.5;exitY=1;exitDx=0;exitDy=0;entryX=0.5;entryY=0;entryDx=0;entryDy=0;fillColor=#d5e8d4;strokeColor=#82b366;" parent="WIyWlLk6GJQsqaUBKTNV-1" source="WIyWlLk6GJQsqaUBKTNV-3" target="SAEvLFweczplVzYCOx6r-5" edge="1">
          <mxGeometry relative="1" as="geometry" />
        </mxCell>
        <mxCell id="WIyWlLk6GJQsqaUBKTNV-3" value="&lt;div&gt;Erste Validierung&amp;nbsp;&lt;/div&gt;&lt;div&gt;bzgl. Datenschema&lt;/div&gt;" style="rounded=1;whiteSpace=wrap;html=1;fontSize=12;glass=0;strokeWidth=1;shadow=0;fillColor=#d5e8d4;strokeColor=#82b366;" parent="WIyWlLk6GJQsqaUBKTNV-1" vertex="1">
          <mxGeometry x="320" y="80" width="200" height="50" as="geometry" />
        </mxCell>
        <mxCell id="SAEvLFweczplVzYCOx6r-11" style="edgeStyle=orthogonalEdgeStyle;rounded=0;orthogonalLoop=1;jettySize=auto;html=1;exitX=0.5;exitY=1;exitDx=0;exitDy=0;entryX=0.5;entryY=0;entryDx=0;entryDy=0;fillColor=#d5e8d4;strokeColor=#82b366;" parent="WIyWlLk6GJQsqaUBKTNV-1" source="SAEvLFweczplVzYCOx6r-1" target="WIyWlLk6GJQsqaUBKTNV-3" edge="1">
          <mxGeometry relative="1" as="geometry" />
        </mxCell>
        <mxCell id="SAEvLFweczplVzYCOx6r-1" value="" style="ellipse;fillColor=#f8cecc;html=1;strokeColor=#b85450;" parent="WIyWlLk6GJQsqaUBKTNV-1" vertex="1">
          <mxGeometry x="405" y="10" width="30" height="30" as="geometry" />
        </mxCell>
        <mxCell id="SAEvLFweczplVzYCOx6r-7" style="edgeStyle=orthogonalEdgeStyle;rounded=0;orthogonalLoop=1;jettySize=auto;html=1;exitX=1;exitY=0.5;exitDx=0;exitDy=0;entryX=0;entryY=0.5;entryDx=0;entryDy=0;fillColor=#d5e8d4;strokeColor=#82b366;" parent="WIyWlLk6GJQsqaUBKTNV-1" source="SAEvLFweczplVzYCOx6r-5" target="SAEvLFweczplVzYCOx6r-6" edge="1">
          <mxGeometry relative="1" as="geometry" />
        </mxCell>
        <mxCell id="SAEvLFweczplVzYCOx6r-14" style="edgeStyle=orthogonalEdgeStyle;rounded=0;orthogonalLoop=1;jettySize=auto;html=1;exitX=0.5;exitY=1;exitDx=0;exitDy=0;entryX=0.5;entryY=0;entryDx=0;entryDy=0;fillColor=#d5e8d4;strokeColor=#82b366;" parent="WIyWlLk6GJQsqaUBKTNV-1" source="SAEvLFweczplVzYCOx6r-5" target="SAEvLFweczplVzYCOx6r-8" edge="1">
          <mxGeometry relative="1" as="geometry" />
        </mxCell>
        <mxCell id="SAEvLFweczplVzYCOx6r-5" value="Valide?" style="rhombus;whiteSpace=wrap;html=1;shadow=0;fontFamily=Helvetica;fontSize=12;align=center;strokeWidth=1;spacing=6;spacingTop=-4;fillColor=#e1d5e7;strokeColor=#9673a6;" parent="WIyWlLk6GJQsqaUBKTNV-1" vertex="1">
          <mxGeometry x="370" y="160" width="100" height="80" as="geometry" />
        </mxCell>
        <mxCell id="SAEvLFweczplVzYCOx6r-6" value="" style="ellipse;html=1;shape=endState;fillColor=#f8cecc;strokeColor=#b85450;" parent="WIyWlLk6GJQsqaUBKTNV-1" vertex="1">
          <mxGeometry x="740" y="185" width="30" height="30" as="geometry" />
        </mxCell>
        <mxCell id="SAEvLFweczplVzYCOx6r-21" style="edgeStyle=orthogonalEdgeStyle;rounded=0;orthogonalLoop=1;jettySize=auto;html=1;exitX=0.5;exitY=1;exitDx=0;exitDy=0;entryX=0.5;entryY=0;entryDx=0;entryDy=0;fillColor=#d5e8d4;strokeColor=#82b366;" parent="WIyWlLk6GJQsqaUBKTNV-1" source="SAEvLFweczplVzYCOx6r-8" target="SAEvLFweczplVzYCOx6r-9" edge="1">
          <mxGeometry relative="1" as="geometry" />
        </mxCell>
        <mxCell id="SAEvLFweczplVzYCOx6r-8" value="Nutzerauthentifizierung" style="rounded=1;whiteSpace=wrap;html=1;fontSize=12;glass=0;strokeWidth=1;shadow=0;fillColor=#d5e8d4;strokeColor=#82b366;" parent="WIyWlLk6GJQsqaUBKTNV-1" vertex="1">
          <mxGeometry x="320" y="270" width="200" height="50" as="geometry" />
        </mxCell>
        <mxCell id="SAEvLFweczplVzYCOx6r-15" style="edgeStyle=orthogonalEdgeStyle;rounded=0;orthogonalLoop=1;jettySize=auto;html=1;exitX=1;exitY=0.5;exitDx=0;exitDy=0;entryX=0;entryY=0.5;entryDx=0;entryDy=0;fillColor=#d5e8d4;strokeColor=#82b366;" parent="WIyWlLk6GJQsqaUBKTNV-1" source="SAEvLFweczplVzYCOx6r-9" target="SAEvLFweczplVzYCOx6r-10" edge="1">
          <mxGeometry relative="1" as="geometry" />
        </mxCell>
        <mxCell id="SAEvLFweczplVzYCOx6r-25" style="edgeStyle=orthogonalEdgeStyle;rounded=0;orthogonalLoop=1;jettySize=auto;html=1;exitX=0.5;exitY=1;exitDx=0;exitDy=0;entryX=0.5;entryY=0;entryDx=0;entryDy=0;fillColor=#d5e8d4;strokeColor=#82b366;" parent="WIyWlLk6GJQsqaUBKTNV-1" source="SAEvLFweczplVzYCOx6r-9" target="SAEvLFweczplVzYCOx6r-16" edge="1">
          <mxGeometry relative="1" as="geometry" />
        </mxCell>
        <mxCell id="SAEvLFweczplVzYCOx6r-9" value="Authentifiziert?" style="rhombus;whiteSpace=wrap;html=1;shadow=0;fontFamily=Helvetica;fontSize=12;align=center;strokeWidth=1;spacing=6;spacingTop=-4;fillColor=#e1d5e7;strokeColor=#9673a6;" parent="WIyWlLk6GJQsqaUBKTNV-1" vertex="1">
          <mxGeometry x="370" y="350" width="100" height="80" as="geometry" />
        </mxCell>
        <mxCell id="SAEvLFweczplVzYCOx6r-10" value="" style="ellipse;html=1;shape=endState;fillColor=#f8cecc;strokeColor=#b85450;" parent="WIyWlLk6GJQsqaUBKTNV-1" vertex="1">
          <mxGeometry x="740" y="375" width="30" height="30" as="geometry" />
        </mxCell>
        <mxCell id="SAEvLFweczplVzYCOx6r-26" style="edgeStyle=orthogonalEdgeStyle;rounded=0;orthogonalLoop=1;jettySize=auto;html=1;exitX=0.5;exitY=1;exitDx=0;exitDy=0;entryX=0.5;entryY=0;entryDx=0;entryDy=0;fillColor=#d5e8d4;strokeColor=#82b366;" parent="WIyWlLk6GJQsqaUBKTNV-1" source="SAEvLFweczplVzYCOx6r-16" target="SAEvLFweczplVzYCOx6r-20" edge="1">
          <mxGeometry relative="1" as="geometry" />
        </mxCell>
        <mxCell id="SAEvLFweczplVzYCOx6r-16" value="&lt;div&gt;Validierung der&amp;nbsp;&lt;/div&gt;&lt;div&gt;Eingabedaten&lt;/div&gt;" style="rounded=1;whiteSpace=wrap;html=1;fontSize=12;glass=0;strokeWidth=1;shadow=0;fillColor=#d5e8d4;strokeColor=#82b366;" parent="WIyWlLk6GJQsqaUBKTNV-1" vertex="1">
          <mxGeometry x="320" y="460" width="200" height="50" as="geometry" />
        </mxCell>
        <mxCell id="SAEvLFweczplVzYCOx6r-28" style="edgeStyle=orthogonalEdgeStyle;rounded=0;orthogonalLoop=1;jettySize=auto;html=1;exitX=1;exitY=0.5;exitDx=0;exitDy=0;entryX=0;entryY=0.5;entryDx=0;entryDy=0;fillColor=#d5e8d4;strokeColor=#82b366;" parent="WIyWlLk6GJQsqaUBKTNV-1" source="SAEvLFweczplVzYCOx6r-20" target="SAEvLFweczplVzYCOx6r-27" edge="1">
          <mxGeometry relative="1" as="geometry" />
        </mxCell>
        <mxCell id="uOGnUlGNdZQHuSrOQ6Ih-29" style="edgeStyle=orthogonalEdgeStyle;rounded=0;orthogonalLoop=1;jettySize=auto;html=1;exitX=0.5;exitY=1;exitDx=0;exitDy=0;entryX=0.5;entryY=0;entryDx=0;entryDy=0;fillColor=#d5e8d4;strokeColor=#82b366;" edge="1" parent="WIyWlLk6GJQsqaUBKTNV-1" source="SAEvLFweczplVzYCOx6r-20" target="uOGnUlGNdZQHuSrOQ6Ih-24">
          <mxGeometry relative="1" as="geometry" />
        </mxCell>
        <mxCell id="SAEvLFweczplVzYCOx6r-20" value="Valide?" style="rhombus;whiteSpace=wrap;html=1;shadow=0;fontFamily=Helvetica;fontSize=12;align=center;strokeWidth=1;spacing=6;spacingTop=-4;fillColor=#e1d5e7;strokeColor=#9673a6;" parent="WIyWlLk6GJQsqaUBKTNV-1" vertex="1">
          <mxGeometry x="370" y="545" width="100" height="80" as="geometry" />
        </mxCell>
        <mxCell id="SAEvLFweczplVzYCOx6r-27" value="" style="ellipse;html=1;shape=endState;fillColor=#f8cecc;strokeColor=#b85450;" parent="WIyWlLk6GJQsqaUBKTNV-1" vertex="1">
          <mxGeometry x="740" y="570" width="30" height="30" as="geometry" />
        </mxCell>
        <mxCell id="SAEvLFweczplVzYCOx6r-48" style="edgeStyle=orthogonalEdgeStyle;rounded=0;orthogonalLoop=1;jettySize=auto;html=1;exitX=1;exitY=0.5;exitDx=0;exitDy=0;entryX=0;entryY=0.25;entryDx=0;entryDy=0;fillColor=#fff2cc;strokeColor=#d6b656;" parent="WIyWlLk6GJQsqaUBKTNV-1" source="SAEvLFweczplVzYCOx6r-33" target="WIyWlLk6GJQsqaUBKTNV-3" edge="1">
          <mxGeometry relative="1" as="geometry" />
        </mxCell>
        <mxCell id="SAEvLFweczplVzYCOx6r-33" value="&lt;div&gt;Geocoded Dataset&amp;nbsp;&lt;/div&gt;&lt;div&gt;(nur Raumbezug+ID)&lt;/div&gt;" style="shape=parallelogram;html=1;strokeWidth=1;perimeter=parallelogramPerimeter;whiteSpace=wrap;rounded=1;arcSize=12;size=0.23;fillColor=#fff2cc;strokeColor=#d6b656;" parent="WIyWlLk6GJQsqaUBKTNV-1" vertex="1">
          <mxGeometry x="55" y="5" width="200" height="60" as="geometry" />
        </mxCell>
        <mxCell id="SAEvLFweczplVzYCOx6r-42" value="" style="ellipse;html=1;shape=endState;fillColor=#f8cecc;strokeColor=#b85450;" parent="WIyWlLk6GJQsqaUBKTNV-1" vertex="1">
          <mxGeometry x="405" y="960" width="30" height="30" as="geometry" />
        </mxCell>
        <mxCell id="SAEvLFweczplVzYCOx6r-49" style="edgeStyle=orthogonalEdgeStyle;rounded=0;orthogonalLoop=1;jettySize=auto;html=1;exitX=1;exitY=0.5;exitDx=0;exitDy=0;entryX=0;entryY=0.5;entryDx=0;entryDy=0;fillColor=#fff2cc;strokeColor=#d6b656;" parent="WIyWlLk6GJQsqaUBKTNV-1" source="SAEvLFweczplVzYCOx6r-44" target="WIyWlLk6GJQsqaUBKTNV-3" edge="1">
          <mxGeometry relative="1" as="geometry" />
        </mxCell>
        <mxCell id="SAEvLFweczplVzYCOx6r-44" value="&lt;div&gt;VerknÃ¼pfungs-&lt;/div&gt;&lt;div&gt;parameter&lt;br&gt;&lt;/div&gt;" style="shape=parallelogram;html=1;strokeWidth=1;perimeter=parallelogramPerimeter;whiteSpace=wrap;rounded=1;arcSize=12;size=0.23;fillColor=#fff2cc;strokeColor=#d6b656;" parent="WIyWlLk6GJQsqaUBKTNV-1" vertex="1">
          <mxGeometry x="45" y="75" width="200" height="60" as="geometry" />
        </mxCell>
        <mxCell id="SAEvLFweczplVzYCOx6r-50" style="edgeStyle=orthogonalEdgeStyle;rounded=0;orthogonalLoop=1;jettySize=auto;html=1;exitX=1;exitY=0.5;exitDx=0;exitDy=0;entryX=0;entryY=0.75;entryDx=0;entryDy=0;dashed=1;dashPattern=8 8;fillColor=#fff2cc;strokeColor=#d6b656;" parent="WIyWlLk6GJQsqaUBKTNV-1" source="SAEvLFweczplVzYCOx6r-45" target="WIyWlLk6GJQsqaUBKTNV-3" edge="1">
          <mxGeometry relative="1" as="geometry">
            <Array as="points">
              <mxPoint x="290" y="175" />
              <mxPoint x="290" y="118" />
            </Array>
          </mxGeometry>
        </mxCell>
        <mxCell id="SAEvLFweczplVzYCOx6r-45" value="Benutzerdefiniertes&lt;br&gt;Geospatial&lt;br&gt;Dataset" style="shape=parallelogram;html=1;strokeWidth=1;perimeter=parallelogramPerimeter;whiteSpace=wrap;rounded=1;arcSize=12;size=0.23;dashed=1;dashPattern=8 8;fillColor=#fff2cc;strokeColor=#d6b656;" parent="WIyWlLk6GJQsqaUBKTNV-1" vertex="1">
          <mxGeometry x="45" y="145" width="200" height="60" as="geometry" />
        </mxCell>
        <mxCell id="SAEvLFweczplVzYCOx6r-58" value="&lt;b&gt;&lt;font style=&quot;font-size: 14px;&quot;&gt;Start&lt;/font&gt;&lt;/b&gt;" style="text;html=1;align=center;verticalAlign=middle;whiteSpace=wrap;rounded=0;" parent="WIyWlLk6GJQsqaUBKTNV-1" vertex="1">
          <mxGeometry x="435" y="10" width="60" height="30" as="geometry" />
        </mxCell>
        <mxCell id="SAEvLFweczplVzYCOx6r-59" value="&lt;div align=&quot;left&quot;&gt;&lt;b&gt;Validation Error&lt;/b&gt;&lt;br&gt;&lt;/div&gt;" style="text;html=1;align=center;verticalAlign=middle;whiteSpace=wrap;rounded=0;" parent="WIyWlLk6GJQsqaUBKTNV-1" vertex="1">
          <mxGeometry x="770" y="185" width="130" height="30" as="geometry" />
        </mxCell>
        <mxCell id="SAEvLFweczplVzYCOx6r-60" value="&lt;div align=&quot;left&quot;&gt;&lt;b&gt;Validation Error&lt;/b&gt;&lt;br&gt;&lt;/div&gt;" style="text;html=1;align=center;verticalAlign=middle;whiteSpace=wrap;rounded=0;" parent="WIyWlLk6GJQsqaUBKTNV-1" vertex="1">
          <mxGeometry x="770" y="570" width="130" height="30" as="geometry" />
        </mxCell>
        <mxCell id="SAEvLFweczplVzYCOx6r-61" value="&lt;div align=&quot;left&quot;&gt;&lt;b&gt;Auth Error&lt;/b&gt;&lt;br&gt;&lt;/div&gt;" style="text;html=1;align=center;verticalAlign=middle;whiteSpace=wrap;rounded=0;" parent="WIyWlLk6GJQsqaUBKTNV-1" vertex="1">
          <mxGeometry x="770" y="375" width="100" height="30" as="geometry" />
        </mxCell>
        <mxCell id="SAEvLFweczplVzYCOx6r-62" value="Neuer Job in Warteschlange" style="text;html=1;align=center;verticalAlign=middle;whiteSpace=wrap;rounded=0;fontStyle=1" parent="WIyWlLk6GJQsqaUBKTNV-1" vertex="1">
          <mxGeometry x="425" y="960" width="215" height="30" as="geometry" />
        </mxCell>
        <mxCell id="uOGnUlGNdZQHuSrOQ6Ih-0" value="Linking Job" style="shape=umlFrame;whiteSpace=wrap;html=1;pointerEvents=0;recursiveResize=0;container=1;collapsible=0;width=100;height=30;fillColor=#ffe6cc;strokeColor=#d79b00;" vertex="1" parent="WIyWlLk6GJQsqaUBKTNV-1">
          <mxGeometry x="1439" y="80" width="240" height="790" as="geometry" />
        </mxCell>
        <mxCell id="uOGnUlGNdZQHuSrOQ6Ih-1" style="edgeStyle=orthogonalEdgeStyle;rounded=0;orthogonalLoop=1;jettySize=auto;html=1;exitX=0.5;exitY=1;exitDx=0;exitDy=0;entryX=0.5;entryY=0;entryDx=0;entryDy=0;fillColor=#d5e8d4;strokeColor=#82b366;" edge="1" parent="uOGnUlGNdZQHuSrOQ6Ih-0" source="uOGnUlGNdZQHuSrOQ6Ih-2" target="uOGnUlGNdZQHuSrOQ6Ih-4">
          <mxGeometry relative="1" as="geometry" />
        </mxCell>
        <mxCell id="uOGnUlGNdZQHuSrOQ6Ih-2" value="Neuer Job in Datenbank starten" style="rounded=1;whiteSpace=wrap;html=1;fontSize=12;glass=0;strokeWidth=1;shadow=0;fillColor=#d5e8d4;strokeColor=#82b366;" vertex="1" parent="uOGnUlGNdZQHuSrOQ6Ih-0">
          <mxGeometry x="20" y="40" width="200" height="50" as="geometry" />
        </mxCell>
        <mxCell id="uOGnUlGNdZQHuSrOQ6Ih-4" value="Bereitstellung aller benÃ¶tigten DatensÃ¤tze &amp;amp; Import in Datenbank" style="rounded=1;whiteSpace=wrap;html=1;fontSize=12;glass=0;strokeWidth=1;shadow=0;fillColor=#d5e8d4;strokeColor=#82b366;" vertex="1" parent="uOGnUlGNdZQHuSrOQ6Ih-0">
          <mxGeometry x="20" y="120" width="200" height="50" as="geometry" />
        </mxCell>
        <mxCell id="uOGnUlGNdZQHuSrOQ6Ih-5" value="Geolinking" style="rounded=1;whiteSpace=wrap;html=1;fontSize=12;glass=0;strokeWidth=1;shadow=0;fillColor=#d5e8d4;strokeColor=#82b366;" vertex="1" parent="uOGnUlGNdZQHuSrOQ6Ih-0">
          <mxGeometry x="20" y="270" width="200" height="70" as="geometry" />
        </mxCell>
        <mxCell id="uOGnUlGNdZQHuSrOQ6Ih-6" style="edgeStyle=orthogonalEdgeStyle;rounded=0;orthogonalLoop=1;jettySize=auto;html=1;exitX=1;exitY=0.5;exitDx=0;exitDy=0;entryX=0;entryY=0.5;entryDx=0;entryDy=0;fillColor=#fff2cc;strokeColor=#d6b656;" edge="1" parent="WIyWlLk6GJQsqaUBKTNV-1" source="uOGnUlGNdZQHuSrOQ6Ih-7" target="uOGnUlGNdZQHuSrOQ6Ih-4">
          <mxGeometry relative="1" as="geometry" />
        </mxCell>
        <mxCell id="uOGnUlGNdZQHuSrOQ6Ih-7" value="Geospatial Dataset" style="shape=parallelogram;html=1;strokeWidth=1;perimeter=parallelogramPerimeter;whiteSpace=wrap;rounded=1;arcSize=12;size=0.23;fillColor=#fff2cc;strokeColor=#d6b656;" vertex="1" parent="WIyWlLk6GJQsqaUBKTNV-1">
          <mxGeometry x="1114" y="195" width="200" height="60" as="geometry" />
        </mxCell>
        <mxCell id="uOGnUlGNdZQHuSrOQ6Ih-8" style="edgeStyle=orthogonalEdgeStyle;rounded=0;orthogonalLoop=1;jettySize=auto;html=1;exitX=1;exitY=0.5;exitDx=0;exitDy=0;entryX=0;entryY=0.75;entryDx=0;entryDy=0;dashed=1;dashPattern=8 8;fillColor=#fff2cc;strokeColor=#d6b656;" edge="1" parent="WIyWlLk6GJQsqaUBKTNV-1" source="uOGnUlGNdZQHuSrOQ6Ih-9" target="uOGnUlGNdZQHuSrOQ6Ih-4">
          <mxGeometry relative="1" as="geometry">
            <Array as="points">
              <mxPoint x="1420" y="300" />
              <mxPoint x="1420" y="238" />
            </Array>
          </mxGeometry>
        </mxCell>
        <mxCell id="uOGnUlGNdZQHuSrOQ6Ih-9" value="Raumeinheiten&lt;br&gt;(wie Gemeinde, &lt;br&gt;Landkreise)" style="shape=parallelogram;html=1;strokeWidth=1;perimeter=parallelogramPerimeter;whiteSpace=wrap;rounded=1;arcSize=12;size=0.23;dashed=1;dashPattern=8 8;fillColor=#fff2cc;strokeColor=#d6b656;" vertex="1" parent="WIyWlLk6GJQsqaUBKTNV-1">
          <mxGeometry x="1114" y="270" width="200" height="60" as="geometry" />
        </mxCell>
        <mxCell id="uOGnUlGNdZQHuSrOQ6Ih-11" value="Angereichertes&lt;br&gt;Geocoded Dataset" style="shape=parallelogram;html=1;strokeWidth=1;perimeter=parallelogramPerimeter;whiteSpace=wrap;rounded=1;arcSize=12;size=0.23;fillColor=#fff2cc;strokeColor=#d6b656;" vertex="1" parent="WIyWlLk6GJQsqaUBKTNV-1">
          <mxGeometry x="1794" y="160" width="200" height="60" as="geometry" />
        </mxCell>
        <mxCell id="uOGnUlGNdZQHuSrOQ6Ih-12" value="Provenance Daten" style="shape=parallelogram;html=1;strokeWidth=1;perimeter=parallelogramPerimeter;whiteSpace=wrap;rounded=1;arcSize=12;size=0.23;fillColor=#fff2cc;strokeColor=#d6b656;" vertex="1" parent="WIyWlLk6GJQsqaUBKTNV-1">
          <mxGeometry x="1794" y="230" width="200" height="60" as="geometry" />
        </mxCell>
        <mxCell id="uOGnUlGNdZQHuSrOQ6Ih-18" style="edgeStyle=orthogonalEdgeStyle;rounded=0;orthogonalLoop=1;jettySize=auto;html=1;exitX=0.5;exitY=1;exitDx=0;exitDy=0;entryX=0.5;entryY=0;entryDx=0;entryDy=0;fillColor=#d5e8d4;strokeColor=#82b366;" edge="1" parent="WIyWlLk6GJQsqaUBKTNV-1" source="SAEvLFweczplVzYCOx6r-30" target="SAEvLFweczplVzYCOx6r-42">
          <mxGeometry relative="1" as="geometry" />
        </mxCell>
        <mxCell id="SAEvLFweczplVzYCOx6r-30" value="Neuer Job in Datenbank anlegen" style="rounded=1;whiteSpace=wrap;html=1;fontSize=12;glass=0;strokeWidth=1;shadow=0;fillColor=#d5e8d4;strokeColor=#82b366;" parent="WIyWlLk6GJQsqaUBKTNV-1" vertex="1">
          <mxGeometry x="320" y="870" width="200" height="50" as="geometry" />
        </mxCell>
        <mxCell id="uOGnUlGNdZQHuSrOQ6Ih-40" style="edgeStyle=orthogonalEdgeStyle;rounded=0;orthogonalLoop=1;jettySize=auto;html=1;exitX=0.5;exitY=1;exitDx=0;exitDy=0;entryX=0.5;entryY=0;entryDx=0;entryDy=0;fillColor=#d5e8d4;strokeColor=#82b366;" edge="1" parent="WIyWlLk6GJQsqaUBKTNV-1" source="uOGnUlGNdZQHuSrOQ6Ih-21" target="uOGnUlGNdZQHuSrOQ6Ih-2">
          <mxGeometry relative="1" as="geometry" />
        </mxCell>
        <mxCell id="uOGnUlGNdZQHuSrOQ6Ih-21" value="" style="ellipse;fillColor=#f8cecc;html=1;strokeColor=#b85450;" vertex="1" parent="WIyWlLk6GJQsqaUBKTNV-1">
          <mxGeometry x="1544" y="10" width="30" height="30" as="geometry" />
        </mxCell>
        <mxCell id="uOGnUlGNdZQHuSrOQ6Ih-22" value="freier Worker beginnt nÃ¤chsten Linking Job in Warteschlange" style="text;html=1;align=center;verticalAlign=middle;whiteSpace=wrap;rounded=0;fontStyle=1" vertex="1" parent="WIyWlLk6GJQsqaUBKTNV-1">
          <mxGeometry x="1540" y="10" width="480" height="30" as="geometry" />
        </mxCell>
        <mxCell id="uOGnUlGNdZQHuSrOQ6Ih-30" style="edgeStyle=orthogonalEdgeStyle;rounded=0;orthogonalLoop=1;jettySize=auto;html=1;exitX=0.5;exitY=1;exitDx=0;exitDy=0;entryX=0.5;entryY=0;entryDx=0;entryDy=0;fillColor=#d5e8d4;strokeColor=#82b366;" edge="1" parent="WIyWlLk6GJQsqaUBKTNV-1" source="uOGnUlGNdZQHuSrOQ6Ih-24" target="uOGnUlGNdZQHuSrOQ6Ih-27">
          <mxGeometry relative="1" as="geometry" />
        </mxCell>
        <mxCell id="uOGnUlGNdZQHuSrOQ6Ih-24" value="VerfÃ¼gbarkeitstest bzgl. externer Komponenten (ORS API, ,,,)" style="rounded=1;whiteSpace=wrap;html=1;fontSize=12;glass=0;strokeWidth=1;shadow=0;fillColor=#d5e8d4;strokeColor=#82b366;" vertex="1" parent="WIyWlLk6GJQsqaUBKTNV-1">
          <mxGeometry x="320" y="660" width="200" height="50" as="geometry" />
        </mxCell>
        <mxCell id="uOGnUlGNdZQHuSrOQ6Ih-25" value="" style="ellipse;html=1;shape=endState;fillColor=#f8cecc;strokeColor=#b85450;" vertex="1" parent="WIyWlLk6GJQsqaUBKTNV-1">
          <mxGeometry x="740" y="775" width="30" height="30" as="geometry" />
        </mxCell>
        <mxCell id="uOGnUlGNdZQHuSrOQ6Ih-26" value="&lt;b&gt;Connectivity Error&lt;/b&gt;" style="text;html=1;align=center;verticalAlign=middle;whiteSpace=wrap;rounded=0;" vertex="1" parent="WIyWlLk6GJQsqaUBKTNV-1">
          <mxGeometry x="778" y="775" width="130" height="30" as="geometry" />
        </mxCell>
        <mxCell id="uOGnUlGNdZQHuSrOQ6Ih-31" style="edgeStyle=orthogonalEdgeStyle;rounded=0;orthogonalLoop=1;jettySize=auto;html=1;exitX=0.5;exitY=1;exitDx=0;exitDy=0;entryX=0.5;entryY=0;entryDx=0;entryDy=0;fillColor=#d5e8d4;strokeColor=#82b366;" edge="1" parent="WIyWlLk6GJQsqaUBKTNV-1" source="uOGnUlGNdZQHuSrOQ6Ih-27" target="SAEvLFweczplVzYCOx6r-30">
          <mxGeometry relative="1" as="geometry" />
        </mxCell>
        <mxCell id="uOGnUlGNdZQHuSrOQ6Ih-32" style="edgeStyle=orthogonalEdgeStyle;rounded=0;orthogonalLoop=1;jettySize=auto;html=1;exitX=1;exitY=0.5;exitDx=0;exitDy=0;entryX=0;entryY=0.5;entryDx=0;entryDy=0;fillColor=#d5e8d4;strokeColor=#82b366;" edge="1" parent="WIyWlLk6GJQsqaUBKTNV-1" source="uOGnUlGNdZQHuSrOQ6Ih-27" target="uOGnUlGNdZQHuSrOQ6Ih-25">
          <mxGeometry relative="1" as="geometry" />
        </mxCell>
        <mxCell id="uOGnUlGNdZQHuSrOQ6Ih-27" value="VerfÃ¼gbar?" style="rhombus;whiteSpace=wrap;html=1;shadow=0;fontFamily=Helvetica;fontSize=12;align=center;strokeWidth=1;spacing=6;spacingTop=-4;fillColor=#e1d5e7;strokeColor=#9673a6;" vertex="1" parent="WIyWlLk6GJQsqaUBKTNV-1">
          <mxGeometry x="370" y="750" width="100" height="80" as="geometry" />
        </mxCell>
        <mxCell id="uOGnUlGNdZQHuSrOQ6Ih-44" style="edgeStyle=orthogonalEdgeStyle;rounded=0;orthogonalLoop=1;jettySize=auto;html=1;exitX=1;exitY=0.5;exitDx=0;exitDy=0;entryX=0;entryY=0.25;entryDx=0;entryDy=0;fillColor=#fff2cc;strokeColor=#d6b656;" edge="1" parent="WIyWlLk6GJQsqaUBKTNV-1" source="uOGnUlGNdZQHuSrOQ6Ih-41" target="uOGnUlGNdZQHuSrOQ6Ih-4">
          <mxGeometry relative="1" as="geometry">
            <Array as="points">
              <mxPoint x="1420" y="150" />
              <mxPoint x="1420" y="213" />
            </Array>
          </mxGeometry>
        </mxCell>
        <mxCell id="uOGnUlGNdZQHuSrOQ6Ih-41" value="&lt;div&gt;Geocoded Dataset&amp;nbsp;&lt;/div&gt;&lt;div&gt;(nur Raumbezug+ID)&lt;/div&gt;" style="shape=parallelogram;html=1;strokeWidth=1;perimeter=parallelogramPerimeter;whiteSpace=wrap;rounded=1;arcSize=12;size=0.23;fillColor=#fff2cc;strokeColor=#d6b656;" vertex="1" parent="WIyWlLk6GJQsqaUBKTNV-1">
          <mxGeometry x="1114" y="120" width="200" height="60" as="geometry" />
        </mxCell>
        <mxCell id="uOGnUlGNdZQHuSrOQ6Ih-43" style="edgeStyle=orthogonalEdgeStyle;rounded=0;orthogonalLoop=1;jettySize=auto;html=1;exitX=1;exitY=0.5;exitDx=0;exitDy=0;endArrow=none;endFill=0;dashed=1;dashPattern=8 8;fillColor=#fff2cc;strokeColor=#d6b656;" edge="1" parent="WIyWlLk6GJQsqaUBKTNV-1" source="uOGnUlGNdZQHuSrOQ6Ih-42">
          <mxGeometry relative="1" as="geometry">
            <mxPoint x="1420" y="300" as="targetPoint" />
            <Array as="points">
              <mxPoint x="1420" y="375" />
            </Array>
          </mxGeometry>
        </mxCell>
        <mxCell id="uOGnUlGNdZQHuSrOQ6Ih-42" value="Benutzerdefiniertes&lt;br&gt;Geospatial&lt;br&gt;Dataset" style="shape=parallelogram;html=1;strokeWidth=1;perimeter=parallelogramPerimeter;whiteSpace=wrap;rounded=1;arcSize=12;size=0.23;dashed=1;dashPattern=8 8;fillColor=#fff2cc;strokeColor=#d6b656;" vertex="1" parent="WIyWlLk6GJQsqaUBKTNV-1">
          <mxGeometry x="1110" y="345" width="200" height="60" as="geometry" />
        </mxCell>
        <mxCell id="uOGnUlGNdZQHuSrOQ6Ih-45" value="Cache" style="rounded=1;whiteSpace=wrap;html=1;fillColor=#fff2cc;strokeColor=#d6b656;dashed=1;dashPattern=8 8;" vertex="1" parent="WIyWlLk6GJQsqaUBKTNV-1">
          <mxGeometry x="1330" y="195" width="50" height="205" as="geometry" />
        </mxCell>
      </root>
    </mxGraphModel>
  </diagram>
</mxfile>
